<?xml version="1.0" encoding="UTF-8" standalone="no"?>
<!-- Created with Inkscape (http://www.inkscape.org/) -->

<svg
   width="40.985748mm"
   height="54.775635mm"
   viewBox="0 0 40.985748 54.775635"
   version="1.1"
   id="svg5"
   inkscape:version="1.2 (dc2aeda, 2022-05-15)"
   sodipodi:docname="AL-logo.svg"
   xml:space="preserve"
   xmlns:inkscape="http://www.inkscape.org/namespaces/inkscape"
   xmlns:sodipodi="http://sodipodi.sourceforge.net/DTD/sodipodi-0.dtd"
   xmlns="http://www.w3.org/2000/svg"
   xmlns:svg="http://www.w3.org/2000/svg"><sodipodi:namedview
     id="namedview7"
     pagecolor="#ffffff"
     bordercolor="#666666"
     borderopacity="1.0"
     inkscape:showpageshadow="2"
     inkscape:pageopacity="0.0"
     inkscape:pagecheckerboard="0"
     inkscape:deskcolor="#d1d1d1"
     inkscape:document-units="mm"
     showgrid="false"
     inkscape:zoom="1.0005438"
     inkscape:cx="326.32253"
     inkscape:cy="693.12306"
     inkscape:window-width="1728"
     inkscape:window-height="1051"
     inkscape:window-x="0"
     inkscape:window-y="38"
     inkscape:window-maximized="1"
     inkscape:current-layer="layer1" /><defs
     id="defs2" /><g
     inkscape:label="Layer 1"
     inkscape:groupmode="layer"
     id="layer1"
     transform="translate(-68.410341,-197.83857)"><rect
       style="opacity:1;fill:#b6d3e3;fill-opacity:1;stroke-width:0.999995;stroke-linecap:round"
       id="rect69547"
       width="28.9813"
       height="28.9813"
       x="219.04155"
       y="17.682625"
       transform="rotate(60.000001)"
       inkscape:export-filename="favicon-64.png"
       inkscape:export-xdpi="39.662567"
       inkscape:export-ydpi="39.662567" /><rect
       style="opacity:1;fill:#a2c9e8;fill-opacity:1;stroke-width:0.999995;stroke-linecap:round"
       id="rect69549"
       width="28.9813"
       height="28.9813"
       x="202.75706"
       y="77.028931"
       transform="rotate(45)" /><rect
       style="opacity:1;fill:#82b3eb;fill-opacity:1;stroke-width:0.999995;stroke-linecap:round"
       id="rect69551"
       width="28.9813"
       height="28.9813"
       x="171.66751"
       y="130.13832"
       transform="rotate(29.999999)" /><path
       id="path69553"
       style="opacity:1;fill:#364584;fill-opacity:1;stroke-width:1;stroke-linecap:round"
       d="m 91.923928,209.27164 c -1.23728,0.043 -2.23342,1.01738 -2.31355,2.24276 v 10.27224 c 5.7e-4,0.25209 0.006,0.52759 0.016,0.7519 0.0149,0.19679 0.0371,0.39294 0.0667,0.58807 0.0293,0.19508 0.0658,0.389 0.10955,0.58136 0.0439,0.19235 0.0949,0.38299 0.15297,0.57154 0.058,0.18839 0.12298,0.37455 0.19482,0.55811 0.0718,0.18373 0.15038,0.36472 0.23564,0.5426 0.0853,0.17785 0.17717,0.35248 0.27544,0.52348 0.0985,0.17111 0.20326,0.33848 0.31419,0.50178 0.11066,0.16328 0.22735,0.32239 0.34985,0.47698 0.12271,0.15442 0.25113,0.3042 0.38499,0.44906 0.13375,0.145 0.27286,0.28498 0.41703,0.41962 0.14414,0.1347 0.29324,0.26397 0.447,0.38757 0.15386,0.1235 0.31227,0.24123 0.4749,0.35295 0.16241,0.11174 0.32893,0.21742 0.4992,0.31678 0.17045,0.0995 0.34455,0.19254 0.52193,0.27905 0.17733,0.0863 0.3578,0.16591 0.54105,0.23875 0.002,9.1e-4 0.005,0.002 0.007,0.003 l 2.47323,-4.28294 c -1.59963,-0.54132 -2.68157,-2.0428 -2.68252,-3.73724 5e-4,-0.0126 0.001,-0.0252 0.002,-0.0377 l -0.0114,0.0248 v -12.02408 z" /><path
       id="path69555"
       style="opacity:1;fill:#364584;fill-opacity:1;stroke-linecap:round"
       inkscape:transform-center-x="3.0845898"
       inkscape:transform-center-y="9.5810971"
       d="m 86.406918,203.91328 c -0.88083,0.0229 -1.67741,0.52821 -2.07377,1.31517 l -0.005,-0.003 -9.95391,17.19017 3.992,2.30477 10.16785,-17.20464 -0.005,-0.003 c 0.22565,-0.38395 0.3397,-0.82292 0.32918,-1.26814 -0.0329,-1.32073 -1.13029,-2.36469 -2.45102,-2.33164 z" /><g
       aria-label="alexlyttle"
       id="text69613"
       style="font-size:10.0583px;line-height:1.25;font-family:Avenir;-inkscape-font-specification:'Avenir, Normal';fill:#82b3eb;stroke-width:0.264582"
       inkscape:export-filename="al-logo-text.svg"
       inkscape:export-xdpi="96"
       inkscape:export-ydpi="96"><path
         d="m 72.353818,247.85662 q -0.25146,0 -0.63368,0.0302 -0.37215,0.0201 -0.72419,0.1207 -0.34199,0.0905 -0.59344,0.29169 -0.2414,0.20116 -0.2414,0.5532 0,0.23135 0.0905,0.40234 0.10059,0.16093 0.26152,0.27157 0.16093,0.10058 0.35204,0.15088 0.20116,0.0402 0.40233,0.0402 0.3621,0 0.62361,-0.1207 0.27158,-0.1207 0.45263,-0.32187 0.18105,-0.21122 0.26151,-0.4828 0.0905,-0.28163 0.0905,-0.59343 v -0.34199 z m 0.34198,-0.54315 v -0.12069 q 0,-1.21706 -1.207,-1.21706 -0.82478,0 -1.43833,0.55321 l -0.40234,-0.47274 q 0.66385,-0.68397 1.99155,-0.68397 0.34198,0 0.65379,0.10059 0.32186,0.10058 0.5532,0.3118 0.23134,0.20117 0.37216,0.51298 0.14082,0.3118 0.14082,0.74431 v 2.10219 q 0,0.27157 0.0201,0.57332 0.0302,0.29169 0.0603,0.4828 h -0.64373 q -0.0302,-0.17099 -0.0503,-0.37216 -0.0101,-0.20117 -0.0101,-0.39227 h -0.0201 q -0.2917,0.47274 -0.69403,0.68396 -0.39227,0.20117 -0.96559,0.20117 -0.31181,0 -0.6035,-0.0905 -0.29169,-0.0805 -0.52303,-0.25146 -0.22129,-0.18105 -0.3621,-0.4325 -0.13076,-0.26152 -0.13076,-0.6035 0,-0.57332 0.29169,-0.89519 0.30175,-0.33192 0.74431,-0.49286 0.45263,-0.16093 0.95554,-0.20116 0.51298,-0.0402 0.93543,-0.0402 z"
         id="path74828" /><path
         d="m 75.713278,250.20021 h -0.66385 v -7.60408 h 0.66385 z"
         id="path74830" /><path
         d="m 80.973768,247.48447 q 0,-0.67391 -0.40233,-1.0863 -0.40234,-0.42245 -1.12653,-0.42245 -0.32187,0 -0.62362,0.13076 -0.30175,0.1207 -0.53309,0.33192 -0.22128,0.21123 -0.3621,0.4828 -0.13075,0.27158 -0.13075,0.56327 z m -3.19854,0.54314 q 0.0302,0.35204 0.17099,0.66385 0.14082,0.31181 0.37216,0.54315 0.23134,0.22128 0.53309,0.35204 0.30175,0.13076 0.65379,0.13076 0.53309,0 0.9153,-0.2414 0.39228,-0.25146 0.59344,-0.57332 l 0.51297,0.42244 q -0.42244,0.53309 -0.93542,0.76444 -0.50291,0.23134 -1.08629,0.23134 -0.52304,0 -0.97566,-0.18105 -0.44256,-0.19111 -0.76443,-0.52303 -0.32186,-0.33193 -0.51297,-0.78455 -0.18105,-0.45263 -0.18105,-0.98572 0,-0.53309 0.18105,-0.98571 0.18105,-0.45262 0.50291,-0.78455 0.32187,-0.33192 0.75437,-0.51297 0.43251,-0.19111 0.93543,-0.19111 0.53309,0 0.95554,0.19111 0.42244,0.19111 0.70408,0.51297 0.29169,0.31181 0.44256,0.74432 0.15088,0.42245 0.15088,0.90525 v 0.30174 z"
         id="path74832" /><path
         d="m 84.122008,247.68563 -1.70991,-2.19271 h 0.90525 l 1.30758,1.7602 1.24723,-1.7602 h 0.82478 l -1.6395,2.19271 1.97142,2.51458 h -0.90524 l -1.57916,-2.06195 -1.5188,2.06195 h -0.8449 z"
         id="path74834" /><path
         d="m 88.567768,250.20021 h -0.66385 v -7.60408 h 0.66385 z"
         id="path74836"
         style="fill:#364584;fill-opacity:1" /><path
         d="m 91.917178,249.38548 1.43834,-3.89256 h 0.80466 l -2.35364,5.9344 q -0.21123,0.54315 -0.54315,0.86501 -0.32187,0.32187 -0.93542,0.32187 -0.15088,0 -0.31181,-0.0101 -0.15087,-0.0101 -0.30175,-0.0603 l 0.0704,-0.64373 q 0.21122,0.11064 0.50291,0.11064 0.35204,0 0.55321,-0.22128 0.20117,-0.22128 0.35204,-0.62362 l 0.34198,-0.90524 -1.93119,-4.76764 h 0.83484 z"
         id="path74838"
         style="fill:#364584;fill-opacity:1" /><path
         d="m 97.449228,246.09642 h -1.35787 v 2.77609 q 0,0.26152 0.0503,0.43251 0.0503,0.16093 0.14082,0.25146 0.0905,0.0905 0.21122,0.13075 0.13076,0.0302 0.28163,0.0302 0.17099,0 0.35204,-0.0503 0.18105,-0.0503 0.33193,-0.13076 l 0.0302,0.61356 q -0.37216,0.17099 -0.89519,0.17099 -0.1911,0 -0.40233,-0.0503 -0.20116,-0.0503 -0.37216,-0.1911 -0.17099,-0.14082 -0.28163,-0.38222 -0.11064,-0.2414 -0.11064,-0.63367 v -2.9672 h -0.99577 v -0.6035 h 0.99577 v -1.32769 h 0.66385 v 1.32769 h 1.35787 z"
         id="path74840"
         style="fill:#364584;fill-opacity:1" /><path
         d="m 100.78857,246.09642 h -1.357872 v 2.77609 q 0,0.26152 0.0503,0.43251 0.0503,0.16093 0.14082,0.25146 0.0905,0.0905 0.21122,0.13075 0.13076,0.0302 0.281642,0.0302 0.17099,0 0.35204,-0.0503 0.18105,-0.0503 0.33192,-0.13076 l 0.0302,0.61356 q -0.37216,0.17099 -0.895192,0.17099 -0.19111,0 -0.40233,-0.0503 -0.20117,-0.0503 -0.37216,-0.1911 -0.17099,-0.14082 -0.28163,-0.38222 -0.11065,-0.2414 -0.11065,-0.63367 v -2.9672 h -0.99577 v -0.6035 h 0.99577 v -1.32769 h 0.66385 v 1.32769 h 1.357872 z"
         id="path74842"
         style="fill:#364584;fill-opacity:1" /><path
         d="m 102.50853,250.20021 h -0.66385 v -7.60408 h 0.66385 z"
         id="path74844"
         style="fill:#364584;fill-opacity:1" /><path
         d="m 107.76902,247.48447 q 0,-0.67391 -0.40233,-1.0863 -0.40233,-0.42245 -1.12653,-0.42245 -0.32187,0 -0.62362,0.13076 -0.30175,0.1207 -0.53309,0.33192 -0.22128,0.21123 -0.3621,0.4828 -0.13075,0.27158 -0.13075,0.56327 z m -3.19854,0.54314 q 0.0302,0.35204 0.17099,0.66385 0.14082,0.31181 0.37216,0.54315 0.23134,0.22128 0.53309,0.35204 0.30175,0.13076 0.65379,0.13076 0.53309,0 0.9153,-0.2414 0.39228,-0.25146 0.59344,-0.57332 l 0.51298,0.42244 q -0.42245,0.53309 -0.93543,0.76444 -0.50291,0.23134 -1.08629,0.23134 -0.52303,0 -0.97566,-0.18105 -0.44256,-0.19111 -0.76443,-0.52303 -0.32186,-0.33193 -0.51297,-0.78455 -0.18105,-0.45263 -0.18105,-0.98572 0,-0.53309 0.18105,-0.98571 0.18105,-0.45262 0.50291,-0.78455 0.32187,-0.33192 0.75438,-0.51297 0.4325,-0.19111 0.93542,-0.19111 0.53309,0 0.95554,0.19111 0.42244,0.19111 0.70408,0.51297 0.29169,0.31181 0.44256,0.74432 0.15088,0.42245 0.15088,0.90525 v 0.30174 z"
         id="path74846"
         style="fill:#364584;fill-opacity:1" /></g></g></svg>
