<?xml version="1.0" encoding="UTF-8" standalone="no"?>
<!-- Created with Inkscape (http://www.inkscape.org/) -->

<svg
   width="40.985748mm"
   height="40.985764mm"
   viewBox="0 0 40.985748 40.985764"
   version="1.1"
   id="svg5"
   inkscape:version="1.2 (dc2aeda, 2022-05-15)"
   sodipodi:docname="AL-logo.svg"
   xml:space="preserve"
   xmlns:inkscape="http://www.inkscape.org/namespaces/inkscape"
   xmlns:sodipodi="http://sodipodi.sourceforge.net/DTD/sodipodi-0.dtd"
   xmlns="http://www.w3.org/2000/svg"
   xmlns:svg="http://www.w3.org/2000/svg"><sodipodi:namedview
     id="namedview7"
     pagecolor="#ffffff"
     bordercolor="#666666"
     borderopacity="1.0"
     inkscape:showpageshadow="2"
     inkscape:pageopacity="0.0"
     inkscape:pagecheckerboard="0"
     inkscape:deskcolor="#d1d1d1"
     inkscape:document-units="mm"
     showgrid="false"
     inkscape:zoom="1.0005438"
     inkscape:cx="326.32253"
     inkscape:cy="693.12306"
     inkscape:window-width="1728"
     inkscape:window-height="1051"
     inkscape:window-x="0"
     inkscape:window-y="38"
     inkscape:window-maximized="1"
     inkscape:current-layer="layer1" /><defs
     id="defs2" /><g
     inkscape:label="Layer 1"
     inkscape:groupmode="layer"
     id="layer1"
     transform="translate(-68.410341,-197.83857)"><rect
       style="opacity:1;fill:#b6d3e3;fill-opacity:1;stroke-width:0.999995;stroke-linecap:round"
       id="rect69547"
       width="28.9813"
       height="28.9813"
       x="219.04155"
       y="17.682625"
       transform="rotate(60.000001)"
       inkscape:export-filename="logo.svg"
       inkscape:export-xdpi="39.662567"
       inkscape:export-ydpi="39.662567" /><rect
       style="opacity:1;fill:#a2c9e8;fill-opacity:1;stroke-width:0.999995;stroke-linecap:round"
       id="rect69549"
       width="28.9813"
       height="28.9813"
       x="202.75706"
       y="77.028931"
       transform="rotate(45)" /><rect
       style="opacity:1;fill:#82b3eb;fill-opacity:1;stroke-width:0.999995;stroke-linecap:round"
       id="rect69551"
       width="28.9813"
       height="28.9813"
       x="171.66751"
       y="130.13832"
       transform="rotate(29.999999)" /><path
       id="path69553"
       style="opacity:1;fill:#364584;fill-opacity:1;stroke-width:1;stroke-linecap:round"
       d="m 91.923928,209.27164 c -1.23728,0.043 -2.23342,1.01738 -2.31355,2.24276 v 10.27224 c 5.7e-4,0.25209 0.006,0.52759 0.016,0.7519 0.0149,0.19679 0.0371,0.39294 0.0667,0.58807 0.0293,0.19508 0.0658,0.389 0.10955,0.58136 0.0439,0.19235 0.0949,0.38299 0.15297,0.57154 0.058,0.18839 0.12298,0.37455 0.19482,0.55811 0.0718,0.18373 0.15038,0.36472 0.23564,0.5426 0.0853,0.17785 0.17717,0.35248 0.27544,0.52348 0.0985,0.17111 0.20326,0.33848 0.31419,0.50178 0.11066,0.16328 0.22735,0.32239 0.34985,0.47698 0.12271,0.15442 0.25113,0.3042 0.38499,0.44906 0.13375,0.145 0.27286,0.28498 0.41703,0.41962 0.14414,0.1347 0.29324,0.26397 0.447,0.38757 0.15386,0.1235 0.31227,0.24123 0.4749,0.35295 0.16241,0.11174 0.32893,0.21742 0.4992,0.31678 0.17045,0.0995 0.34455,0.19254 0.52193,0.27905 0.17733,0.0863 0.3578,0.16591 0.54105,0.23875 0.002,9.1e-4 0.005,0.002 0.007,0.003 l 2.47323,-4.28294 c -1.59963,-0.54132 -2.68157,-2.0428 -2.68252,-3.73724 5e-4,-0.0126 0.001,-0.0252 0.002,-0.0377 l -0.0114,0.0248 v -12.02408 z" /><path
       id="path69555"
       style="opacity:1;fill:#364584;fill-opacity:1;stroke-linecap:round"
       inkscape:transform-center-x="3.0845898"
       inkscape:transform-center-y="9.5810971"
       d="m 86.406918,203.91328 c -0.88083,0.0229 -1.67741,0.52821 -2.07377,1.31517 l -0.005,-0.003 -9.95391,17.19017 3.992,2.30477 10.16785,-17.20464 -0.005,-0.003 c 0.22565,-0.38395 0.3397,-0.82292 0.32918,-1.26814 -0.0329,-1.32073 -1.13029,-2.36469 -2.45102,-2.33164 z" /></g></svg>
